<svg width="84" height="13" viewBox="0 0 84 13" fill="none" xmlns="http://www.w3.org/2000/svg">
<path d="M7.335 9.675H2.775L1.935 12H0.495L4.275 1.605H5.85L9.615 12H8.175L7.335 9.675ZM6.945 8.565L5.055 3.285L3.165 8.565H6.945ZM12.6274 5.31C12.9074 4.82 13.3174 4.42 13.8574 4.11C14.3974 3.8 15.0124 3.645 15.7024 3.645C16.4424 3.645 17.1074 3.82 17.6974 4.17C18.2874 4.52 18.7524 5.015 19.0924 5.655C19.4324 6.285 19.6024 7.02 19.6024 7.86C19.6024 8.69 19.4324 9.43 19.0924 10.08C18.7524 10.73 18.2824 11.235 17.6824 11.595C17.0924 11.955 16.4324 12.135 15.7024 12.135C14.9924 12.135 14.3674 11.98 13.8274 11.67C13.2974 11.36 12.8974 10.965 12.6274 10.485V12H11.2624V0.9H12.6274V5.31ZM18.2074 7.86C18.2074 7.24 18.0824 6.7 17.8324 6.24C17.5824 5.78 17.2424 5.43 16.8124 5.19C16.3924 4.95 15.9274 4.83 15.4174 4.83C14.9174 4.83 14.4524 4.955 14.0224 5.205C13.6024 5.445 13.2624 5.8 13.0024 6.27C12.7524 6.73 12.6274 7.265 12.6274 7.875C12.6274 8.495 12.7524 9.04 13.0024 9.51C13.2624 9.97 13.6024 10.325 14.0224 10.575C14.4524 10.815 14.9174 10.935 15.4174 10.935C15.9274 10.935 16.3924 10.815 16.8124 10.575C17.2424 10.325 17.5824 9.97 17.8324 9.51C18.0824 9.04 18.2074 8.49 18.2074 7.86ZM24.9841 12.135C24.2141 12.135 23.5141 11.96 22.8841 11.61C22.2641 11.26 21.7741 10.765 21.4141 10.125C21.0641 9.475 20.8891 8.725 20.8891 7.875C20.8891 7.035 21.0691 6.295 21.4291 5.655C21.7991 5.005 22.2991 4.51 22.9291 4.17C23.5591 3.82 24.2641 3.645 25.0441 3.645C25.8241 3.645 26.5291 3.82 27.1591 4.17C27.7891 4.51 28.2841 5 28.6441 5.64C29.0141 6.28 29.1991 7.025 29.1991 7.875C29.1991 8.725 29.0091 9.475 28.6291 10.125C28.2591 10.765 27.7541 11.26 27.1141 11.61C26.4741 11.96 25.7641 12.135 24.9841 12.135ZM24.9841 10.935C25.4741 10.935 25.9341 10.82 26.3641 10.59C26.7941 10.36 27.1391 10.015 27.3991 9.555C27.6691 9.095 27.8041 8.535 27.8041 7.875C27.8041 7.215 27.6741 6.655 27.4141 6.195C27.1541 5.735 26.8141 5.395 26.3941 5.175C25.9741 4.945 25.5191 4.83 25.0291 4.83C24.5291 4.83 24.0691 4.945 23.6491 5.175C23.2391 5.395 22.9091 5.735 22.6591 6.195C22.4091 6.655 22.2841 7.215 22.2841 7.875C22.2841 8.545 22.4041 9.11 22.6441 9.57C22.8941 10.03 23.2241 10.375 23.6341 10.605C24.0441 10.825 24.4941 10.935 24.9841 10.935ZM38.2839 3.78V12H36.9189V10.785C36.6589 11.205 36.2939 11.535 35.8239 11.775C35.3639 12.005 34.8539 12.12 34.2939 12.12C33.6539 12.12 33.0789 11.99 32.5689 11.73C32.0589 11.46 31.6539 11.06 31.3539 10.53C31.0639 10 30.9189 9.355 30.9189 8.595V3.78H32.2689V8.415C32.2689 9.225 32.4739 9.85 32.8839 10.29C33.2939 10.72 33.8539 10.935 34.5639 10.935C35.2939 10.935 35.8689 10.71 36.2889 10.26C36.7089 9.81 36.9189 9.155 36.9189 8.295V3.78H38.2839ZM42.2536 4.905V9.75C42.2536 10.15 42.3386 10.435 42.5086 10.605C42.6786 10.765 42.9736 10.845 43.3936 10.845H44.3986V12H43.1686C42.4086 12 41.8386 11.825 41.4586 11.475C41.0786 11.125 40.8886 10.55 40.8886 9.75V4.905H39.8236V3.78H40.8886V1.71H42.2536V3.78H44.3986V4.905H42.2536ZM57.3415 3.78V12H55.9765V10.785C55.7165 11.205 55.3515 11.535 54.8815 11.775C54.4215 12.005 53.9115 12.12 53.3515 12.12C52.7115 12.12 52.1365 11.99 51.6265 11.73C51.1165 11.46 50.7115 11.06 50.4115 10.53C50.1215 10 49.9765 9.355 49.9765 8.595V3.78H51.3265V8.415C51.3265 9.225 51.5315 9.85 51.9415 10.29C52.3515 10.72 52.9115 10.935 53.6215 10.935C54.3515 10.935 54.9265 10.71 55.3465 10.26C55.7665 9.81 55.9765 9.155 55.9765 8.295V3.78H57.3415ZM62.5562 12.135C61.9262 12.135 61.3612 12.03 60.8612 11.82C60.3612 11.6 59.9662 11.3 59.6762 10.92C59.3862 10.53 59.2262 10.085 59.1962 9.585H60.6062C60.6462 9.995 60.8362 10.33 61.1762 10.59C61.5262 10.85 61.9812 10.98 62.5412 10.98C63.0612 10.98 63.4712 10.865 63.7712 10.635C64.0712 10.405 64.2212 10.115 64.2212 9.765C64.2212 9.405 64.0612 9.14 63.7412 8.97C63.4212 8.79 62.9262 8.615 62.2562 8.445C61.6462 8.285 61.1462 8.125 60.7562 7.965C60.3762 7.795 60.0462 7.55 59.7662 7.23C59.4962 6.9 59.3612 6.47 59.3612 5.94C59.3612 5.52 59.4862 5.135 59.7362 4.785C59.9862 4.435 60.3412 4.16 60.8012 3.96C61.2612 3.75 61.7862 3.645 62.3762 3.645C63.2862 3.645 64.0212 3.875 64.5812 4.335C65.1412 4.795 65.4412 5.425 65.4812 6.225H64.1162C64.0862 5.795 63.9112 5.45 63.5912 5.19C63.2812 4.93 62.8612 4.8 62.3312 4.8C61.8412 4.8 61.4512 4.905 61.1612 5.115C60.8712 5.325 60.7262 5.6 60.7262 5.94C60.7262 6.21 60.8112 6.435 60.9812 6.615C61.1612 6.785 61.3812 6.925 61.6412 7.035C61.9112 7.135 62.2812 7.25 62.7512 7.38C63.3412 7.54 63.8212 7.7 64.1912 7.86C64.5612 8.01 64.8762 8.24 65.1362 8.55C65.4062 8.86 65.5462 9.265 65.5562 9.765C65.5562 10.215 65.4312 10.62 65.1812 10.98C64.9312 11.34 64.5762 11.625 64.1162 11.835C63.6662 12.035 63.1462 12.135 62.5562 12.135ZM78.6115 12L77.7912 11.1903L81.1683 7.81321H72.4219V6.64133H81.1683L77.7912 3.27486L78.6115 2.45455L83.3842 7.22727L78.6115 12Z" fill="white"/>
</svg>
